
<svg version="1.1"
	 id="Layer_1" xmlns:cc="http://creativecommons.org/ns#" xmlns:dc="http://purl.org/dc/elements/1.1/" xmlns:inkscape="http://www.inkscape.org/namespaces/inkscape" xmlns:rdf="http://www.w3.org/1999/02/22-rdf-syntax-ns#" xmlns:sodipodi="http://sodipodi.sourceforge.net/DTD/sodipodi-0.dtd" xmlns:svg="http://www.w3.org/2000/svg"
	 xmlns="http://www.w3.org/2000/svg" xmlns:xlink="http://www.w3.org/1999/xlink" x="0px" y="0px" viewBox="0 0 39 16.1"
	 style="enable-background:new 0 0 39 16.1;" xml:space="preserve">
<path d="M38.9,7.8C38.9,7.8,38.9,7.8,38.9,7.8l-9.1-7.7C29.7,0,29.6,0,29.5,0v0c-0.2,0-0.4,0.2-0.4,0.4c0,0.1,0.1,0.2,0.2,0.3
	l8.2,6.9H0.3C0.1,7.7,0,7.8,0,8v0.2c0,0.2,0.1,0.3,0.3,0.3h37.2l-8.2,6.9c-0.2,0.1-0.2,0.4-0.1,0.6c0.1,0.2,0.4,0.2,0.6,0.1
	c0,0,0,0,0,0l9.1-7.6C39,8.2,39,8,38.9,7.8z"/>
</svg>
