<?xml version="1.0" encoding="utf-8"?>
<!-- Generator: Adobe Illustrator 23.0.1, SVG Export Plug-In . SVG Version: 6.00 Build 0)  -->
<svg version="1.1"
	 id="Layer_1" xmlns:cc="http://creativecommons.org/ns#" xmlns:dc="http://purl.org/dc/elements/1.1/" xmlns:inkscape="http://www.inkscape.org/namespaces/inkscape" xmlns:rdf="http://www.w3.org/1999/02/22-rdf-syntax-ns#" xmlns:sodipodi="http://sodipodi.sourceforge.net/DTD/sodipodi-0.dtd" xmlns:svg="http://www.w3.org/2000/svg"
	 xmlns="http://www.w3.org/2000/svg" xmlns:xlink="http://www.w3.org/1999/xlink" x="0px" y="0px" viewBox="0 0 79 16.2"
	 style="enable-background:new 0 0 79 16.2;" xml:space="preserve">
<path d="M78.9,7.8L78.9,7.8l-9.1-7.7C69.7,0,69.6,0,69.5,0l0,0c-0.2,0-0.4,0.2-0.4,0.4c0,0.1,0.1,0.2,0.2,0.3l8.2,6.9H0.3
	C0.1,7.7,0,7.8,0,8v0.2c0,0.2,0.1,0.3,0.3,0.3h77.2l-8.2,6.9c-0.2,0.1-0.2,0.4-0.1,0.6c0.1,0.2,0.4,0.2,0.6,0.1l0,0l9.1-7.6
	C79,8.2,79,8,78.9,7.8z"/>
</svg>
