<svg id="Layer_1" data-name="Layer 1" xmlns="http://www.w3.org/2000/svg" viewBox="0 0 20 27.71"><defs><style>.cls-1{fill:tan;}</style></defs><path class="cls-1" d="M6,12c0,.07-.08.14-.17.17a.21.21,0,0,0-.11.16,1.42,1.42,0,0,1-.14.36c0,.28.08.53.09.79a1.79,1.79,0,0,1,0,.4c0,.17,0,.35,0,.53s0,.08,0,.11c0,.23,0,.45,0,.68s0,.2,0,.3l-.09.39,0,0a1.41,1.41,0,0,1-.39.34l-.11.05a2.22,2.22,0,0,1-.62.24s-.13,0-.19,0a.57.57,0,0,1-.65-.35,1.49,1.49,0,0,1-.15-.4c0-.15-.19-.24-.14-.41v0A2.39,2.39,0,0,1,3.17,15l0-.09c-.1,0-.08-.15-.13-.23s0-.11-.07-.15a.35.35,0,0,1-.08-.13,2.2,2.2,0,0,0-.15-.31c-.05-.07-.13-.12-.18-.2l-.06,0a1,1,0,0,1-.24-.15.46.46,0,0,0-.28-.19l-.08-.05-.29-.2a.59.59,0,0,0-.31-.12l-.14,0C1,13.09.9,13,.75,13l0,0a.74.74,0,0,0-.33-.17l-.24-.11a4.4,4.4,0,0,1-.5-.21h0a1.16,1.16,0,0,1-.45-.12.18.18,0,0,0-.23,0l.05.24a.92.92,0,0,0,.29.59.81.81,0,0,0,0,.16,2.45,2.45,0,0,0,0,.27c0,.1,0,.22,0,.32s-.06.24,0,.35l0,.07a.75.75,0,0,1-.1.2.31.31,0,0,1-.26.16,1.11,1.11,0,0,1-.59-.11l-.16-.06a1.62,1.62,0,0,1-.46-.22c-.15-.09-.3-.17-.36-.36v0a.68.68,0,0,1-.18-.32l0-.05a.1.1,0,0,0-.09.08,1.1,1.1,0,0,1,0,.18.61.61,0,0,0,0,.27.5.5,0,0,1,0,.12l0,.17a.69.69,0,0,1-.33.59.15.15,0,0,1-.16,0,.56.56,0,0,0-.21-.06l-.06,0-.22-.27a3.17,3.17,0,0,0-.29-.35A.68.68,0,0,1-4.6,14l-.07-.07a.71.71,0,0,1-.27-.35c0-.1-.06-.23-.15-.31a.12.12,0,0,1,0-.1.09.09,0,0,0,0-.1l0-.06a1.41,1.41,0,0,0,0-.2,2,2,0,0,1,0-.35.56.56,0,0,0-.06-.32.41.41,0,0,0,.1-.3.47.47,0,0,1,0-.17A2.41,2.41,0,0,0-5,10.92c0-.11,0-.19.13-.23s.17-.09.18-.17.13-.25.14-.4a.86.86,0,0,1,0-.27.85.85,0,0,0,.1-.28A3.86,3.86,0,0,1-4.23,9L-4,8.41l.12-.28.11-.33,0-.12a.07.07,0,0,0-.07-.06h0l-.07,0a1.33,1.33,0,0,1-.44.14c-.15,0-.29.1-.45.12s0,0-.08,0L-5,8a2.11,2.11,0,0,0-.54.22l-.12,0a.32.32,0,0,0-.14,0c-.21.12-.46.12-.68.22a.56.56,0,0,0-.37.15.47.47,0,0,0-.27.16l-.09.07a.33.33,0,0,1-.28-.15.17.17,0,0,1,0-.19l.1-.15a2,2,0,0,1,.46-.32.84.84,0,0,0,.23-.18.56.56,0,0,1,.37-.23.45.45,0,0,0,.18-.07l.34-.19.25-.16a2.88,2.88,0,0,1,.66-.43l.14-.08a1.53,1.53,0,0,1,.37-.21.54.54,0,0,1,.25-.09.71.71,0,0,0,.31-.13,1.32,1.32,0,0,1,.33-.18A.82.82,0,0,0-3.21,6a1,1,0,0,0,.37-.42l0,0h.07a.2.2,0,0,0,.21,0l.31-.2.28-.19L-1.88,5l.1-.07c.08,0,.11,0,.15-.08a.63.63,0,0,1,.3-.16,1.41,1.41,0,0,0,.22-.06,1.79,1.79,0,0,1,.52-.12.82.82,0,0,0,.41,0h0c.12,0,.25,0,.37,0a.81.81,0,0,0,.38,0,1,1,0,0,1,.24,0,2.27,2.27,0,0,0,.58,0,.24.24,0,0,1,.12,0l.19.07.13-.05c.06,0,.13,0,.17,0a1.1,1.1,0,0,1,.36-.07l.17,0a6.06,6.06,0,0,1,.61-.16,2.64,2.64,0,0,0,.4-.12.62.62,0,0,1,.32-.09l.06,0A1.34,1.34,0,0,0,4.07,4a.16.16,0,0,0,0-.1,1.56,1.56,0,0,1,0-.71A.9.9,0,0,0,4,2.54c-.11-.23-.18-.48-.3-.71a.23.23,0,0,1,0-.14.75.75,0,0,1,.19-.53c.12-.1.23-.22.34-.33a.34.34,0,0,1,.16-.1.34.34,0,0,0,.27-.3L4.48.27,4.34.17,4,0a.54.54,0,0,0-.24-.09.29.29,0,0,1-.16-.07l-.1-.07-.2-.09c-.06-.05-.08-.13-.14-.18A.49.49,0,0,1,3-.86.5.5,0,0,1,3-1c.06-.08.07-.19.17-.24l.07-.07a1,1,0,0,1,.54-.41A.31.31,0,0,0,4-1.83L4.08-2l0-.2a.16.16,0,0,0-.12-.15l-.3-.1a.87.87,0,0,1-.31-.14.51.51,0,0,0-.15-.07.36.36,0,0,1-.3-.3l0-.09a.61.61,0,0,1,0-.6A1.27,1.27,0,0,1,3.12-4l.13-.14a.17.17,0,0,0,0-.22l0,0A.38.38,0,0,1,3-4.57a.49.49,0,0,0-.14-.23.17.17,0,0,1-.07-.1c0-.09-.1-.11-.1-.19s-.1-.12-.14-.19l-.13-.18c0-.07,0-.15-.08-.21s-.1-.13-.14-.21a.51.51,0,0,1-.07-.4.28.28,0,0,1,.28-.24h.23l.21-.11A.7.7,0,0,0,3-6.71a.22.22,0,0,0,.11-.21.23.23,0,0,1,.06-.16l.11-.22.17-.42,0-.07a1.71,1.71,0,0,1-.15-.71.33.33,0,0,1,.26-.39h.06A6.9,6.9,0,0,0,4.41-9a.32.32,0,0,0,.16,0L5-9.19s.09-.06.1-.1a1.72,1.72,0,0,0,.09-.44,1.88,1.88,0,0,1,.06-.58.52.52,0,0,1,.09-.2,1.2,1.2,0,0,1,.37-.23.91.91,0,0,1,.46,0,2.18,2.18,0,0,1,.94.4,1.57,1.57,0,0,1,.25.2.52.52,0,0,0,.43.14,1.4,1.4,0,0,0,.45-.1l.24,0,.16,0,.33-.28a2.16,2.16,0,0,1,.38-.27l.06,0c.05-.1.16-.14.24-.21a.39.39,0,0,1,.23-.07.1.1,0,0,1,.09,0,.45.45,0,0,1,.21.24.39.39,0,0,0,.11.22.36.36,0,0,1,.12.27.31.31,0,0,0,.07.18.47.47,0,0,1,.14.29l0,0a1.86,1.86,0,0,1,.21.28L11-9.4c.07.05.06.16.14.2a5.8,5.8,0,0,1,.34.52,4,4,0,0,1,.24.46c.09,0,.07.16.14.21s.07.16.1.24l0,0c.1.11.1.29.22.38l0,.07s0,.08,0,.1a1.18,1.18,0,0,0,.19.32.3.3,0,0,1,.07.38.15.15,0,0,1-.19.12.16.16,0,0,1-.1-.08.22.22,0,0,1-.05-.08,1,1,0,0,0-.2-.51.44.44,0,0,0-.1-.22c-.07-.1-.12-.2-.18-.3,0-.25-.22-.41-.26-.65l-.06-.08a2.85,2.85,0,0,1-.25-.33A1.72,1.72,0,0,1,10.86-9l0-.06-.19-.2a.39.39,0,0,1-.41-.11.36.36,0,0,0-.32-.35,1.52,1.52,0,0,0-.6,0,.26.26,0,0,1-.15,0,.45.45,0,0,0-.28,0,.31.31,0,0,0-.28.13l-.06,0a2.53,2.53,0,0,0-.42.31L8-9.32a.21.21,0,0,1-.29,0l0,0-.15-.18-.22.07a.34.34,0,0,1-.24,0l-.43.22a.52.52,0,0,1-.28.05c-.05,0-.09,0-.1-.1l0-.08a.25.25,0,0,1,.19-.2A4.45,4.45,0,0,0,7-9.82a.09.09,0,0,0,0-.12l0,0L7-10a1.78,1.78,0,0,1-.27-.17,1.66,1.66,0,0,0-.48-.19l-.26,0a.26.26,0,0,0-.19,0,.72.72,0,0,0-.24.25.88.88,0,0,1,0,.16l-.06.4a.75.75,0,0,0,0,.15.15.15,0,0,0,.09.14l.15.08a.12.12,0,0,1,0,.14s-.07.1-.12.12l-.32.23A2.56,2.56,0,0,1,5-8.48c-.17.07-.3.21-.49.24l-.07.06-.26.26a.59.59,0,0,0-.25.38l0,.06a.23.23,0,0,1,0,.24v.07c0,.09,0,.18,0,.27a.39.39,0,0,1-.19.34,1.23,1.23,0,0,0-.28.23v.11a1,1,0,0,0,.08.75.44.44,0,0,1,0,.25l0,.14a.38.38,0,0,1,.13.25c0,.12.09.24.12.36A2.65,2.65,0,0,1,4-3.84a1.61,1.61,0,0,1,.08.38,3.56,3.56,0,0,1,.14.63.25.25,0,0,0,0,.12.84.84,0,0,0,.35.3c0,.15.1.28.08.41l-.11.19a.21.21,0,0,0,0,.19l.06.14a1.09,1.09,0,0,1,0,.26c0,.19.09.38.11.57v0a1.38,1.38,0,0,1,.09.39A.42.42,0,0,0,5,.06c.06.05,0,.17.11.2v0c0,.18.07.36.11.53s.14.47.17.71c0,.09,0,.18.07.27a1.7,1.7,0,0,0,0,.22.57.57,0,0,1-.05.46.27.27,0,0,1,.09.31.53.53,0,0,0,0,.22c0,.05,0,.09,0,.13s-.08.14-.11.21l-.11.26a.27.27,0,0,1-.06.1c-.13.08-.24.21-.41.22a.38.38,0,0,1-.15.22.29.29,0,0,0-.14.25.16.16,0,0,1,0,.11l-.15.12a.59.59,0,0,1-.26-.07.24.24,0,0,0-.18,0,1.16,1.16,0,0,0-.37.13,1,1,0,0,1-.38.1,2.13,2.13,0,0,0-.42.1C2.54,4.92,2.28,5,2,5H1.66c-.14,0-.27.07-.4,0H.63A1.49,1.49,0,0,0,.16,5l-.09,0A1.47,1.47,0,0,0-.52,5,.9.9,0,0,1-.8,5a.56.56,0,0,0-.33.1c-.14.08-.28.16-.43.23a.9.9,0,0,0-.32.23L-2,5.68l-.12.09-.09.14-.1,0h0L-2.48,6c-.08,0,0,.12,0,.18a.24.24,0,0,1-.08.09l-.25.16,0,.11A1.83,1.83,0,0,0-3,7s-.05.07-.06.11a1.46,1.46,0,0,0-.18.38c0,.16-.12.32-.15.48a1.12,1.12,0,0,1-.17.46.56.56,0,0,0,0,.12l0,.12a3.2,3.2,0,0,0-.16.39A2.55,2.55,0,0,1-4,9.4a4,4,0,0,0-.25.9,5.67,5.67,0,0,1-.2.67V11l.09.05a1,1,0,0,0,.53,0l.31,0a.47.47,0,0,1,.17,0,4.69,4.69,0,0,0,.65.14l.09,0a.29.29,0,0,0,.24,0h.17l.59.16.31.08a1.33,1.33,0,0,1,.14.19A.57.57,0,0,0-.72,12a.78.78,0,0,1,.36.13h0a1.28,1.28,0,0,1,.47.18.44.44,0,0,0,.16.06.29.29,0,0,1,.13,0c.32.14.63.29,1,.4s.4.2.6.28.24.09.36.13a.09.09,0,0,0,.12-.05h0c0-.09.11-.11.17-.16a.39.39,0,0,1,.18.18.55.55,0,0,0,.08.15,1.29,1.29,0,0,1,.09.16l.16,0a.36.36,0,0,0,.27-.07.76.76,0,0,1,.26-.15s.09-.07.12-.12l.06-.13a.54.54,0,0,0,.33-.2l.17-.19a6.14,6.14,0,0,0,.5-.52,1.27,1.27,0,0,1,.27-.3.33.33,0,0,0,.09-.11c.12-.21.3-.38.41-.6a.6.6,0,0,0,.16-.41.49.49,0,0,0,0-.12.49.49,0,0,1,.34-.17l.1-.12a.78.78,0,0,0,.22-.26l0-.06a3.84,3.84,0,0,0,.41-.56,1.76,1.76,0,0,1,.14-.23,3.92,3.92,0,0,0,.27-.33c.07-.14.19-.23.26-.36a1.67,1.67,0,0,0,.25-.43A.36.36,0,0,1,7.93,8a1.21,1.21,0,0,0,.24-.35.43.43,0,0,1,.18-.2.14.14,0,0,1,.11,0,.21.21,0,0,1,.14.24A2.19,2.19,0,0,1,8.48,8c-.06.13-.14.26-.21.38a1,1,0,0,1,0,.38,1.31,1.31,0,0,0-.07.65,2.72,2.72,0,0,0,.12.8v0a2.1,2.1,0,0,0,.08.56.9.9,0,0,1,0,.28,1.64,1.64,0,0,0,0,.22,2.13,2.13,0,0,1,0,.25,1.76,1.76,0,0,1,0,.4.76.76,0,0,0,0,.15,2.29,2.29,0,0,1,0,.37,1.35,1.35,0,0,1,0,.4.25.25,0,0,1-.14.25,2,2,0,0,1-.38.22.44.44,0,0,1-.47,0c-.11-.07-.24-.13-.4-.21a1,1,0,0,0-.32-.35l0-.06c-.09-.17-.22-.31-.3-.49a1.15,1.15,0,0,1-.14-.32.15.15,0,0,0-.13-.14ZM3.3,14.47c0,.07.1.13.09.22l0,.07.06.1c.07.22.2.42.27.64a2.93,2.93,0,0,0,.28.56.3.3,0,0,0,.31.15.93.93,0,0,0,.4-.12l.07,0c.1,0,.16,0,.22-.11s.11-.13.17-.2l.1-.34,0-.07c0-.16,0-.32,0-.48a3.4,3.4,0,0,1,0-.45,1.24,1.24,0,0,0,0-.27c0-.26,0-.52,0-.78a.45.45,0,0,0,0-.3c0-.07,0-.14,0-.21a1.27,1.27,0,0,0,0-.2.08.08,0,0,0-.11,0H5a.6.6,0,0,1-.29.23l-.06,0a.27.27,0,0,1-.19.17.11.11,0,0,0-.08.08.59.59,0,0,1-.26.3l-.37.28c-.12.08-.26.15-.38.22l-.25.16Zm3-3.37.11.27c0,.07.09.13.05.22l0,.09.08.23,0,.07c.16.08.16.26.24.39s0,.1.09.11H7a1.56,1.56,0,0,0,.68.54.2.2,0,0,0,.27,0l.14-.11a.24.24,0,0,0,.11-.25c0-.17,0-.35,0-.52a.24.24,0,0,1,0-.12c.05-.16,0-.32,0-.48l0,0a.49.49,0,0,1,0-.24.57.57,0,0,0,0-.34.77.77,0,0,1,0-.15A1.14,1.14,0,0,0,8,10.42a1,1,0,0,1,0-.25,3.34,3.34,0,0,0-.1-.62.67.67,0,0,1,0-.2A.42.42,0,0,0,7.75,9l-.18.17-.08.1s-.07.13-.14.17l0,.09a.24.24,0,0,1-.09.22c-.19.18-.3.44-.49.62s-.09.16-.15.23,0,.13,0,.21-.23.09-.24.25ZM-1.09,14a.49.49,0,0,0,0-.12.37.37,0,0,1,0-.18.52.52,0,0,0-.06-.34,4.78,4.78,0,0,0-.19-.48.59.59,0,0,1-.09-.31,1.73,1.73,0,0,0-.12-.46A.48.48,0,0,0-1.63,12c-.05,0-.12-.07-.17-.13s-.12,0-.16,0a.39.39,0,0,0-.26,0,.5.5,0,0,1-.24,0,2.07,2.07,0,0,1-.47-.18l0,0a.91.91,0,0,0,.06.4,1,1,0,0,1,.13.58,1.47,1.47,0,0,0,0,.29.48.48,0,0,1,.06.29l0,.07.13.18s.06.08,0,.11.07.18.11.27.15.14.18.26.14.13.25.14a.45.45,0,0,1,.32.09.42.42,0,0,0,.27,0l.18,0C-1.14,14.16-1.11,14.08-1.09,14Zm-3.54-2.29a.32.32,0,0,1,0,.14,1.7,1.7,0,0,0-.07.55v.12a.93.93,0,0,0,0,.44.5.5,0,0,1,0,.34l.09.13a.81.81,0,0,0,.25.3,2.79,2.79,0,0,1,.39.38.31.31,0,0,1,.09.11.55.55,0,0,0,.27.29l.07-.08A.61.61,0,0,0-3.46,14a.34.34,0,0,1,0-.24.24.24,0,0,0,0-.12.75.75,0,0,1,0-.42.65.65,0,0,0,0-.31.57.57,0,0,1,0-.13s0-.07,0-.09a.52.52,0,0,1,0-.3,1.09,1.09,0,0,0,0-.26,3.47,3.47,0,0,1-.06-.45.78.78,0,0,1,0-.16,2.5,2.5,0,0,1-1.09,0A.17.17,0,0,0-4.63,11.71ZM4.72,1a1.54,1.54,0,0,1-.43.33.3.3,0,0,0-.14.35,1.55,1.55,0,0,0,0,.23l0,.1c.12,0,.08.16.14.24a.56.56,0,0,1,.1.28l0,.08s0,.06,0,.09,0,.25,0,.37a2.6,2.6,0,0,1,0,.4.24.24,0,0,0,.08.24l.14-.12.15-.13a.49.49,0,0,0,.17-.38v-.3a.82.82,0,0,1,0-.27V2.46a.53.53,0,0,1,0-.39.37.37,0,0,0,0-.27.45.45,0,0,1,0-.16s0-.09,0-.13S4.92,1.17,4.86,1L4.81,1ZM3.54-.66c.07,0,.16.06.19.15l.06,0h.07a.64.64,0,0,0,.29.16l.31.13s0-.06,0-.09a.91.91,0,0,1-.09-.41.28.28,0,0,0,0-.09c0-.18-.09-.36-.11-.54l0-.07-.08,0c-.15,0-.32,0-.43.2a.28.28,0,0,1-.13.11c-.14.05-.19.16-.25.28s.13.11.19.16ZM-5.29,7.61c.21-.12.45-.15.66-.25a.8.8,0,0,1,.15,0,.78.78,0,0,0,.37-.09,1,1,0,0,1,.17,0A.45.45,0,0,0-3.65,7a1.52,1.52,0,0,0,.24-.41l-.12,0a1.48,1.48,0,0,0-.31.15.89.89,0,0,1-.31.15,1.77,1.77,0,0,0-.49.21c-.2.12-.41.22-.6.35l-.17.12C-5.35,7.64-5.32,7.63-5.29,7.61Zm8-13.73a.68.68,0,0,0,.13.5v0A3.42,3.42,0,0,0,3.14-5l.07.13a1.12,1.12,0,0,1,.16.22.06.06,0,0,0,0-.08h0c-.08-.22-.1-.46-.2-.67a1.42,1.42,0,0,1,0-.2l-.07-.29c0-.08,0-.15,0-.25A.66.66,0,0,0,2.67-6.12Zm.76,2.45a.22.22,0,0,0-.1.11l-.13.31a1.38,1.38,0,0,0,.65.42l0-.14,0-.18c0-.05,0-.09,0-.14a2.45,2.45,0,0,0,0-.27.72.72,0,0,0-.09-.2,1,1,0,0,0-.21.09Zm6.06-6.48.44.07.08,0v-.09c0-.09-.09-.17-.13-.26s-.12-.12-.2-.08a.61.61,0,0,0-.23.15.4.4,0,0,1-.19.15.05.05,0,0,0,0,.07.07.07,0,0,0,.08,0h0l.08,0ZM4.09-8.49a.37.37,0,0,0-.18,0,1.2,1.2,0,0,0-.21.13l0,.1c0,.07.07.1.12.06a1.81,1.81,0,0,0,.3-.25Z" transform="translate(7.5 11.1)"/><path class="cls-1" d="M7.49-6.95a.11.11,0,0,1,.12.09l0,.3v.1a.6.6,0,0,0,.27.51,2.57,2.57,0,0,1,.33.33A7.41,7.41,0,0,0,8.8-5a2.67,2.67,0,0,0,.57.43.37.37,0,0,1,.15.13.57.57,0,0,0,.14.13l0,0,.05,0c.12,0,.22.07.32.06s.28,0,.41,0,.28,0,.42-.06a.58.58,0,0,0,.22-.08l.32-.14a.34.34,0,0,0,.09-.08A.8.8,0,0,0,11.72-5s0-.07,0-.11l0-.12a1.51,1.51,0,0,0,0-.3c0-.27-.06-.53-.09-.8a.14.14,0,0,0-.11-.12.15.15,0,0,0-.18.1.42.42,0,0,0,0,.27,2.35,2.35,0,0,1,.05.75.33.33,0,0,1-.12.24.23.23,0,0,0-.13.17l0,0a1.52,1.52,0,0,1-.65.25,4.3,4.3,0,0,0-.51,0,.17.17,0,0,1-.1,0l-.05,0L9.39-5a1.42,1.42,0,0,1-.25-.24,2.69,2.69,0,0,0-.32-.27c-.06,0-.11-.07-.13-.14l0-.06c-.17-.1-.26-.28-.42-.38a.62.62,0,0,0-.17-.22l0-.08,0-.13a3.73,3.73,0,0,0-.19-.88.44.44,0,0,1,0-.3.16.16,0,0,0-.06-.18l-.1-.09c-.13,0-.19,0-.26.08a.2.2,0,0,0-.08.15.53.53,0,0,1-.15.34l0,.09a1.44,1.44,0,0,1-.07.36c0,.18-.1.36-.13.53a1.45,1.45,0,0,0,0,.35,2.92,2.92,0,0,1,0,.51.82.82,0,0,0,0,.41A1.38,1.38,0,0,1,7-4.72L7-4.6l0,0a1,1,0,0,0,.07.44c0,.18,0,.36,0,.54a.45.45,0,0,0,0,.2v.05C7-3.21,7-3.1,7-3s0,.2,0,.3v.08c0,.12.06.23,0,.36s0,.25,0,.38.07.14,0,.22l0,0a.46.46,0,0,1,.1.25,5.15,5.15,0,0,1,.19.75,1.74,1.74,0,0,1,.14.38A1.68,1.68,0,0,1,7.64,0a1.37,1.37,0,0,0,.13.45c0,.07,0,.15.06.22a.66.66,0,0,1,.08.21,4.56,4.56,0,0,0,.18.6,2.19,2.19,0,0,1,.14.5,1.17,1.17,0,0,0,0,.2.41.41,0,0,1,.07.3.29.29,0,0,0,0,.18A1.16,1.16,0,0,1,8.45,3a.77.77,0,0,0,.07.26l0,.1c0,.26.11.51.14.77a1.33,1.33,0,0,0,.05.19c0,.1,0,.22,0,.32s.06.19,0,.3l0,.09a.45.45,0,0,1,0,.32v.07a.74.74,0,0,1,0,.39.16.16,0,0,0,0,.12L9,6.24a.37.37,0,0,0,.31,0v-.5a.91.91,0,0,1-.08-.37,1.87,1.87,0,0,0-.14-.61.2.2,0,0,1,0-.11c0-.13,0-.25,0-.37l0-.1a2.22,2.22,0,0,1-.16-.71,3.2,3.2,0,0,0-.15-.61.67.67,0,0,1-.05-.19c0-.17,0-.34-.07-.5a5.09,5.09,0,0,0-.14-.56c-.06-.24-.17-.45-.21-.69S8.06.32,8,0a1.54,1.54,0,0,1-.09-.37,1.8,1.8,0,0,0-.08-.21l0-.06L7.77-.72a.66.66,0,0,1,0-.15c-.07-.2-.09-.42-.17-.62a.8.8,0,0,1,0-.15.8.8,0,0,0,0-.27c0-.07,0-.17-.06-.24a3.7,3.7,0,0,1-.07-.57v-.07a2.15,2.15,0,0,0,0-.5,1.31,1.31,0,0,0,0-.28.52.52,0,0,1,0-.3.25.25,0,0,0,0-.12c0-.14,0-.28,0-.42s0-.08,0-.12a.28.28,0,0,0,0-.13.77.77,0,0,1-.07-.26.28.28,0,0,0,0-.13.56.56,0,0,1-.07-.38,2,2,0,0,0,0-.35c0-.09,0-.19,0-.26a2.51,2.51,0,0,0,0-.27A1.44,1.44,0,0,1,7.49-6.95Z" transform="translate(7.5 11.1)"/><path class="cls-1" d="M9.28-6.95a.33.33,0,0,1,.14.27l0,0a.39.39,0,0,0,.42-.12.16.16,0,0,0,0-.16l-.09-.18a1.83,1.83,0,0,1-.24-.31s-.08-.06-.13,0a.1.1,0,0,0-.07.1A.54.54,0,0,1,9.28-6.95Z" transform="translate(7.5 11.1)"/></svg>