<svg id="7e3541fc-435d-4d01-8126-7f4a0ca54b13" data-name="Layer 1" xmlns="http://www.w3.org/2000/svg" viewBox="0 0 382.845 48.75"><defs><style>.\32 58effb5-e16e-40a9-baeb-19320c39a23a{fill:#fff;}</style></defs><title>heterodox</title><path class="258effb5-e16e-40a9-baeb-19320c39a23a" d="M28.2,47.4a2.589,2.589,0,0,1-.775-1.075A7.424,7.424,0,0,1,27,44.6a21.349,21.349,0,0,1-.175-2.6q-.026-1.549-.025-3.75,0-.5.025-1.65t.075-2.575q.049-1.425.125-3.075t.125-3.175q.049-1.525.075-2.8T27.25,22.9q0-.75-.075-1.575T26.95,19.7a8.346,8.346,0,0,0-.4-1.45,4.328,4.328,0,0,0-.6-1.1,8.424,8.424,0,0,0-2.875-2.3,7.008,7.008,0,0,0-2.925-.7,3.156,3.156,0,0,0-1.7.8q-1.05.8-2.2,1.75,0,7.05.075,13.975T16.5,44.1a10.123,10.123,0,0,0,.1,1.6,3.4,3.4,0,0,0,.275.95,1.109,1.109,0,0,0,.45.5A2.83,2.83,0,0,0,18,47.4H6.55a1.42,1.42,0,0,0,.475-.6A6.8,6.8,0,0,0,7.3,44.6q.1-4.55.15-9.625t.075-9.95q.024-4.875.025-9.175V8.55A28.514,28.514,0,0,0,7.2,4.875,3.82,3.82,0,0,0,6.175,2.75a4.157,4.157,0,0,0-2.25-1A32.608,32.608,0,0,0,0,1.4a96.411,96.411,0,0,0,10.2-.35q3.9-.4,6-.75V8.325q0,4.076.05,8.325,1.4-1.449,3.4-3.15t3.8-3a15.325,15.325,0,0,1,2.225-1.325A4.457,4.457,0,0,1,27.55,8.75a7.052,7.052,0,0,1,3.1.725,9.284,9.284,0,0,1,2.675,1.95,9.748,9.748,0,0,1,1.9,2.9,8.793,8.793,0,0,1,.725,3.525q0,1.8-.075,4.6t-.15,5.825q-.075,3.026-.15,5.825T35.5,38.7a19.95,19.95,0,0,0,.4,4.475,7.679,7.679,0,0,0,1.025,2.575,3.4,3.4,0,0,0,1.35,1.225,5.353,5.353,0,0,0,1.375.425Z"/><path class="258effb5-e16e-40a9-baeb-19320c39a23a" d="M46.9,30.55q0-2.149.125-3.575a11.9,11.9,0,0,1,.45-2.475,7.6,7.6,0,0,1,.875-1.9q.549-.85,1.4-1.95.6-.75,1.15-1.4t1.175-1.325q.625-.675,1.425-1.5T55.4,14.5q1.1-1.1,2.275-2.175a27.676,27.676,0,0,1,2.3-1.9A16.972,16.972,0,0,1,62.1,9.075a3.825,3.825,0,0,1,1.7-.525,9.392,9.392,0,0,1,2.675.425,17.025,17.025,0,0,1,2.85,1.15,21.044,21.044,0,0,1,2.775,1.7A23.8,23.8,0,0,1,74.6,13.9L55.548,30.5a21.052,21.052,0,0,0,.725,3.8,8.22,8.22,0,0,0,1.3,2.625,7.976,7.976,0,0,0,2.025,1.85,22.2,22.2,0,0,0,2.85,1.525,10.572,10.572,0,0,0,1.4.525,12.318,12.318,0,0,0,1.475.35q.724.125,1.35.2a8.965,8.965,0,0,0,1.025.075,6.675,6.675,0,0,0,1.975-.3,8.63,8.63,0,0,0,2.475-1.45,42.713,42.713,0,0,0,3.8-3.425Q78.248,34,81.9,30.05q-3.6,4-6.15,6.825t-4.35,4.7q-1.8,1.875-2.975,2.95A21.476,21.476,0,0,1,66.4,46.2a12.089,12.089,0,0,1-2.675,1.325A8.91,8.91,0,0,1,60.8,48a15.42,15.42,0,0,1-4.275-.625,14.768,14.768,0,0,1-3.775-1.625,10.28,10.28,0,0,1-2.7-2.275,11.093,11.093,0,0,1-1.8-3.15A18.853,18.853,0,0,1,47.224,36.1,41.725,41.725,0,0,1,46.9,30.55Zm8.35-7.6q0,2.3.05,4.15a31.9,31.9,0,0,0,.25,3.35l11.1-10.2a23.672,23.672,0,0,0-4.725-3.625A10.137,10.137,0,0,0,56.8,15.2a5.886,5.886,0,0,1-.625-.025,1.262,1.262,0,0,0-.525.075,23.175,23.175,0,0,0-.325,3.25Q55.249,20.4,55.249,22.95Z"/><path class="258effb5-e16e-40a9-baeb-19320c39a23a" d="M81.248,16.45q-.9,0-.3-.6L93.748,4.6a1.068,1.068,0,0,1,.6-.225c.133.017.2.208.2.575V9.5l6.9-.1q3.45-.049,7,0l-8.3,7.15q-.851-.049-2.2-.1t-3.4-.1q0,6.85.025,11.125t.075,6.75q.049,2.475.175,3.475a4.076,4.076,0,0,0,.275,1.25,4.03,4.03,0,0,0,.925.825A15.894,15.894,0,0,0,97.648,40.8a15.55,15.55,0,0,0,1.85.875,4.6,4.6,0,0,0,1.65.375,1.659,1.659,0,0,0,.65-.15,5.186,5.186,0,0,0,1.05-.725q.7-.574,1.95-1.7t3.3-3.075q-2.051,2.1-4.1,4.05t-3.8,3.575q-1.75,1.625-3.125,2.75a15.132,15.132,0,0,1-2.025,1.475,3.018,3.018,0,0,1-1.35.351,3.483,3.483,0,0,1-1.025-.275,11.643,11.643,0,0,1-1.6-.774q-.875-.5-1.775-1.1a12.821,12.821,0,0,1-1.65-1.3,6.724,6.724,0,0,1-1.525-1.925A5.372,5.372,0,0,1,85.6,40.75l.2-24.35q-1.05,0-2.175.025T81.248,16.45Z"/><path class="258effb5-e16e-40a9-baeb-19320c39a23a" d="M109.448,30.55q0-2.149.125-3.575a11.9,11.9,0,0,1,.45-2.475,7.6,7.6,0,0,1,.875-1.9q.549-.85,1.4-1.95.6-.75,1.15-1.4t1.175-1.325q.625-.675,1.425-1.5t1.9-1.925q1.1-1.1,2.275-2.175a27.676,27.676,0,0,1,2.3-1.9,16.972,16.972,0,0,1,2.125-1.35,3.825,3.825,0,0,1,1.7-.525,9.392,9.392,0,0,1,2.675.425,17.025,17.025,0,0,1,2.85,1.15,21.044,21.044,0,0,1,2.775,1.7,23.8,23.8,0,0,1,2.5,2.075L118.1,30.5a21.052,21.052,0,0,0,.725,3.8,8.22,8.22,0,0,0,1.3,2.625,7.976,7.976,0,0,0,2.025,1.85A22.2,22.2,0,0,0,125,40.3a10.572,10.572,0,0,0,1.4.525,12.318,12.318,0,0,0,1.475.35q.724.125,1.35.2a8.965,8.965,0,0,0,1.025.075,6.675,6.675,0,0,0,1.975-.3A8.63,8.63,0,0,0,134.7,39.7a42.713,42.713,0,0,0,3.8-3.425q2.3-2.275,5.95-6.225-3.6,4-6.15,6.825t-4.35,4.7q-1.8,1.875-2.975,2.95a21.476,21.476,0,0,1-2.025,1.675,12.089,12.089,0,0,1-2.675,1.325,8.91,8.91,0,0,1-2.925.475,15.42,15.42,0,0,1-4.275-.625A14.768,14.768,0,0,1,115.3,45.75a10.28,10.28,0,0,1-2.7-2.275,11.093,11.093,0,0,1-1.8-3.15,18.853,18.853,0,0,1-1.025-4.225A41.725,41.725,0,0,1,109.448,30.55Zm8.35-7.6q0,2.3.05,4.15a31.9,31.9,0,0,0,.25,3.35l11.1-10.2a23.672,23.672,0,0,0-4.725-3.625,10.137,10.137,0,0,0-5.125-1.425,5.886,5.886,0,0,1-.625-.025,1.262,1.262,0,0,0-.525.075,23.175,23.175,0,0,0-.325,3.25Q117.8,20.4,117.8,22.95Z"/><path class="258effb5-e16e-40a9-baeb-19320c39a23a" d="M161.9,41.7q-.4.3-1.45,1.125t-2.325,1.8q-1.275.975-2.5,1.9T153.7,47.9a2.447,2.447,0,0,1-1.3.45,3.433,3.433,0,0,1-.75-.125,7.051,7.051,0,0,1-1.075-.375q-.576-.25-1.15-.55a5.049,5.049,0,0,1-1.025-.7,5.273,5.273,0,0,1-2.05-4.4V14.25a13.615,13.615,0,0,0-.15-2.225,3.373,3.373,0,0,0-.525-1.4,2.044,2.044,0,0,0-1.025-.75A7.438,7.438,0,0,0,143,9.55q1.549,0,3.325-.025t3.425-.15q1.65-.125,3.1-.275t2.45-.35v6.575q0,3.375.025,6.65t.025,6.25q0,2.975.025,5.375t.05,4.025q.025,1.625.075,2.175a2.6,2.6,0,0,0,.625.875,5.346,5.346,0,0,0,1.125.85,8.635,8.635,0,0,0,1.325.625,3.551,3.551,0,0,0,1.225.25,2.946,2.946,0,0,0,1-.2A7.97,7.97,0,0,0,161.9,41.7Zm1-32.95q1.95,1.25,3.325,1.975a21.141,21.141,0,0,0,2.375,1.1,8.089,8.089,0,0,0,1.775.475,11.779,11.779,0,0,0,1.525.1,3.261,3.261,0,0,0,.8-.1,3.5,3.5,0,0,0,.85-.35,6.958,6.958,0,0,0,1.025-.725q.574-.475,1.325-1.225-3,3.051-4.95,4.85a42.344,42.344,0,0,1-3.225,2.75,8.954,8.954,0,0,1-2.1,1.25,4.614,4.614,0,0,1-1.575.3,6.8,6.8,0,0,1-3.125-.875q-1.676-.875-4.575-2.775Z"/><path class="258effb5-e16e-40a9-baeb-19320c39a23a" d="M176.2,20.9a37.251,37.251,0,0,1,2.55-2.925q1.549-1.625,2.9-2.975t2.6-2.5a16.117,16.117,0,0,1,2.625-1.975,12.47,12.47,0,0,1,3.075-1.3,14.747,14.747,0,0,1,3.95-.475,13.234,13.234,0,0,1,6.1,1.2,11.007,11.007,0,0,1,3.9,3.45,12.942,12.942,0,0,1,2.225,4.775,23.572,23.572,0,0,1,.625,5.475q0,1.95-.125,3.575a22.424,22.424,0,0,1-.45,3.1,13.777,13.777,0,0,1-.95,2.825,15.529,15.529,0,0,1-1.625,2.7A8.8,8.8,0,0,1,202.572,37q-.626.6-1.3,1.25T199.9,39.5q-.7.6-1.25,1.05a17,17,0,0,0-2.125,2.1,23.987,23.987,0,0,1-1.625,1.8,11.023,11.023,0,0,1-3.825,2.7,12.963,12.963,0,0,1-4.925.85,13.276,13.276,0,0,1-6.25-1.3,11.529,11.529,0,0,1-4.05-3.55,14.473,14.473,0,0,1-2.325-4.65,19.124,19.124,0,0,1-.725-5.35q0-1.95.15-3.6a17.637,17.637,0,0,1,.55-3.1,17.46,17.46,0,0,1,1.05-2.825A16.175,16.175,0,0,1,176.2,20.9Zm20.7,20q.55-2.5.875-5.275a47.018,47.018,0,0,0,.325-5.475q0-2.149-.1-3.875a31.3,31.3,0,0,0-.325-3.125,15.871,15.871,0,0,0-.625-2.575,11.359,11.359,0,0,0-1-2.175,6.847,6.847,0,0,0-3.2-2.8,13.765,13.765,0,0,0-5.3-.85,21.3,21.3,0,0,0-2.375.15,13.4,13.4,0,0,0-2.575.55q-.551,2.5-.925,4.975A34.526,34.526,0,0,0,181.3,25.6a29.7,29.7,0,0,0,.675,7,16.98,16.98,0,0,0,1.925,4.75,8.4,8.4,0,0,0,8.05,4.25,21.327,21.327,0,0,0,2.375-.15A13.3,13.3,0,0,0,196.9,40.9Z"/><path class="258effb5-e16e-40a9-baeb-19320c39a23a" d="M244.9,0a12.525,12.525,0,0,0-.15,1.95q-.051,1.551-.075,3.875t-.025,5.275q0,2.95-.025,6.1t0,6.35q.024,3.2.025,6.075V38.7a19.983,19.983,0,0,0,.4,4.475,7.7,7.7,0,0,0,1.025,2.575,3.407,3.407,0,0,0,1.35,1.225,5.358,5.358,0,0,0,1.375.425H237.4a3.344,3.344,0,0,1-1-1.775,18.23,18.23,0,0,1-.4-3.475q-.951.951-2.45,2.275T230.4,47a9.028,9.028,0,0,1-2.375,1.35,8.006,8.006,0,0,1-2.675.4,6.825,6.825,0,0,1-3.425-.925,8.813,8.813,0,0,1-2.85-2.675,13.815,13.815,0,0,1-1.925-4.3,21.922,21.922,0,0,1-.7-5.8,32.812,32.812,0,0,1,.55-6.425,18.823,18.823,0,0,1,1.7-4.95,17.622,17.622,0,0,1,2.975-4.125,46.374,46.374,0,0,1,4.375-3.95q1.2-.949,2.5-1.875t2.625-1.75q1.324-.825,2.55-1.5l2.225-1.225V8.8q0-2.4-.15-3.9a8.616,8.616,0,0,0-.525-2.4,2.387,2.387,0,0,0-1.025-1.25A4.428,4.428,0,0,0,232.6.8q1.55,0,3.375-.075t3.55-.2Q241.247.4,242.672.25T244.9,0ZM236,15.3h-3.85q-1.9,0-3.425.125a13.645,13.645,0,0,0-2.075.275q-.2.7-.5,1.975t-.575,3.05q-.275,1.775-.475,4t-.2,4.775a25.322,25.322,0,0,0,.775,6.85,12.3,12.3,0,0,0,2,4.25,6.518,6.518,0,0,0,2.825,2.15,9.191,9.191,0,0,0,3.25.6,1.983,1.983,0,0,0,.975-.35A10.057,10.057,0,0,0,236,42.05V15.3Z"/><path class="258effb5-e16e-40a9-baeb-19320c39a23a" d="M259.247,20.9a37.249,37.249,0,0,1,2.55-2.925q1.549-1.625,2.9-2.975t2.6-2.5a16.117,16.117,0,0,1,2.625-1.975A12.47,12.47,0,0,1,273,9.225a14.747,14.747,0,0,1,3.95-.475,13.234,13.234,0,0,1,6.1,1.2,11.007,11.007,0,0,1,3.9,3.45,12.942,12.942,0,0,1,2.225,4.775,23.572,23.572,0,0,1,.625,5.475q0,1.95-.125,3.575a22.424,22.424,0,0,1-.45,3.1,13.777,13.777,0,0,1-.95,2.825,15.529,15.529,0,0,1-1.625,2.7A8.8,8.8,0,0,1,285.622,37q-.626.6-1.3,1.25t-1.375,1.25q-.7.6-1.25,1.05a17,17,0,0,0-2.125,2.1,23.989,23.989,0,0,1-1.625,1.8,11.023,11.023,0,0,1-3.825,2.7A12.963,12.963,0,0,1,269.2,48a13.276,13.276,0,0,1-6.25-1.3,11.529,11.529,0,0,1-4.05-3.55,14.473,14.473,0,0,1-2.325-4.65,19.124,19.124,0,0,1-.725-5.35q0-1.95.15-3.6a17.637,17.637,0,0,1,.55-3.1,17.46,17.46,0,0,1,1.05-2.825A16.175,16.175,0,0,1,259.247,20.9Zm20.7,20q.55-2.5.875-5.275a47.018,47.018,0,0,0,.325-5.475q0-2.149-.1-3.875a31.3,31.3,0,0,0-.325-3.125,15.871,15.871,0,0,0-.625-2.575,11.359,11.359,0,0,0-1-2.175,6.847,6.847,0,0,0-3.2-2.8,13.765,13.765,0,0,0-5.3-.85,21.3,21.3,0,0,0-2.375.15,13.4,13.4,0,0,0-2.575.55q-.551,2.5-.925,4.975a34.526,34.526,0,0,0-.375,5.175,29.7,29.7,0,0,0,.675,7,16.98,16.98,0,0,0,1.925,4.75A8.4,8.4,0,0,0,275,41.6a21.327,21.327,0,0,0,2.375-.15A13.3,13.3,0,0,0,279.946,40.9Z"/><path class="258effb5-e16e-40a9-baeb-19320c39a23a" d="M305.2,47.7q-1.95-1.249-3.25-1.975a19.519,19.519,0,0,0-2.25-1.1,7.561,7.561,0,0,0-1.65-.475,10.293,10.293,0,0,0-1.45-.1,3.3,3.3,0,0,0-.8.1,3.57,3.57,0,0,0-.85.35,7.1,7.1,0,0,0-1.025.725q-.574.475-1.325,1.225,3-3.049,4.9-4.875t3.125-2.825a8.982,8.982,0,0,1,2-1.325,3.927,3.927,0,0,1,1.525-.325,4.5,4.5,0,0,1,1.475.25,9.957,9.957,0,0,1,1.575.725q.85.476,1.95,1.175t2.55,1.65Zm17.45-13.85q1.2,1.9,2.025,3.25a15.705,15.705,0,0,0,1.6,2.225,5.325,5.325,0,0,0,1.65,1.3A4.7,4.7,0,0,0,330,41.05a2.568,2.568,0,0,0,1.225-.375A9.76,9.76,0,0,0,333.146,39q-.7.9-1.775,2.15t-2.225,2.5Q328,44.9,326.9,46a18.668,18.668,0,0,1-1.9,1.7,6.142,6.142,0,0,1-.625.325,2.362,2.362,0,0,1-1.025.225,2.565,2.565,0,0,1-1.4-.5,13.484,13.484,0,0,1-2-1.8,9.668,9.668,0,0,1-.975-1.15q-.475-.649-1.075-1.6t-1.4-2.25q-.8-1.3-1.9-3.1L304.247,20.9a25.912,25.912,0,0,0-2.8-3.875,3.7,3.7,0,0,0-2.7-1.425,2.964,2.964,0,0,0-1.375.35A6.8,6.8,0,0,0,295.7,17.4q.8-.9,1.725-1.975t1.925-2.075q.85-.9,1.575-1.625a13.364,13.364,0,0,1,1.425-1.25,6.35,6.35,0,0,1,1.45-.825,4.4,4.4,0,0,1,1.65-.3,2.531,2.531,0,0,1,1.5.55,7.986,7.986,0,0,1,1.5,1.5q.75.951,1.55,2.2t1.65,2.6Zm-.2-24.55q1.7,1.05,2.85,1.75t1.975,1.1a8.88,8.88,0,0,0,1.45.575A4.687,4.687,0,0,0,330,12.9a3.3,3.3,0,0,0,1.5-.35,8.273,8.273,0,0,0,1.8-1.4q-2.7,2.85-4.325,4.5t-2.625,2.475a6.107,6.107,0,0,1-1.625,1.05,3.742,3.742,0,0,1-1.275.225,5.631,5.631,0,0,1-1.425-.175,7.578,7.578,0,0,1-1.475-.575,13.143,13.143,0,0,1-1.8-1.125q-1-.724-2.3-1.775Zm11.1,1.55a1.4,1.4,0,0,0-.25.3A1.4,1.4,0,0,1,333.546,10.85Z"/><path class="258effb5-e16e-40a9-baeb-19320c39a23a" d="M382.845,40.5l-8.55,8-8.5-7.25,8.5-7.65Z"/></svg>