<svg id="Layer_1" data-name="Layer 1" xmlns="http://www.w3.org/2000/svg" viewBox="0 0 470 470"><title>sun</title><path d="M235,104.61A130.39,130.39,0,1,0,365.39,235,130.38,130.38,0,0,0,235,104.61Zm0,240.78A110.39,110.39,0,1,1,345.39,235,110.39,110.39,0,0,1,235,345.39Z"/><path d="M245,61V10a10,10,0,0,0-20,0V61a10,10,0,0,0,20,0Z"/><path d="M235,399a10,10,0,0,0-10,10v51a10,10,0,0,0,20,0V409A10,10,0,0,0,235,399Z"/><path d="M460,225H409a10,10,0,0,0,0,20h51a10,10,0,0,0,0-20Z"/><path d="M71,235a10,10,0,0,0-10-10H10a10,10,0,0,0,0,20H61A10,10,0,0,0,71,235Z"/><path d="M365.26,118.88l35.47-35.47a10,10,0,0,0-14.14-14.14l-35.47,35.47a10,10,0,1,0,14.14,14.14Z"/><path d="M104.74,351.12,69.27,386.59a10,10,0,1,0,14.14,14.14l35.47-35.47a10,10,0,1,0-14.14-14.14Z"/><path d="M365.26,351.12a10,10,0,1,0-14.14,14.14l35.47,35.47a10,10,0,0,0,14.14-14.14Z"/><path d="M104.74,118.88a10,10,0,1,0,14.14-14.14L83.41,69.27A10,10,0,0,0,69.27,83.41Z"/></svg>